# xmcd
#
# Track frame offsets:
#	150
#	15700
#	29275
#	48787
#	62175
#	76312
#	90675
#	117900
#	143362
#	154612
#	165262
#	179287
#	191062
#	205087
#
# Disc length: 2894 seconds
#
# Revision: 2
# Processed by: cddbd v1.5.2PL0 Copyright (c) Steve Scherf et al.
# Submitted via: EZCDAudioConverter 2.0.7.1
#
DISCID=a70b4c0e
DTITLE=Bukka White, Skip James, Blind Willie McTell - Three Shades of Blue
DYEAR=2007
DGENRE=Blues
TTITLE0=Mama Don' Low
TTITLE1=Hot Springs, Arkansas
TTITLE2=Jelly Roll Workin' Man
TTITLE3=Black Crepe Blues
TTITLE4=Glory Bound Train
TTITLE5=Drunken Spree
TTITLE6=Special Rider Blues
TTITLE7=I Don't Want a Woman to Stay Out All Night Long
TTITLE8=Love Changin' Blues
TTITLE9=Savannah Mama
TTITLE10=Talkin' to You, Mama
TTITLE11=East St. Louis
TTITLE12=Wee Midnight Hours
TTITLE13=Pal Of Mine
EXTD=
EXTT0=
EXTT1=
EXTT2=
EXTT3=
EXTT4=
EXTT5=
EXTT6=
EXTT7=
EXTT8=
EXTT9=
EXTT10=
EXTT11=
EXTT12=
EXTT13=
PLAYORDER=
